PathFileType	4	(X/Y/Z)	c:\Git\powerlifing_model_clean\simulations\HC835B\Session1\HC835B_OGR_0008\marker_experimental.trc
DataRate	CameraRate	NumFrames	NumMarkers	Units	OrigDataRate	OrigDataStartFrame	OrigNumFrames
240.000000	240.000000	4	38	mm	240.000000	189	217
Frame#	Time	RPSI			LPSI			RASI			LASI			RTH1			RTH2			RTH3			RTH4			RSK1			RSK2			RSK3			RSK4			RCAL1			RCAL2			RCAL3			RST			RPT			RTN			RFMB			RSMB			RVMB			RFMH			RSMH			RVMH			RPM			LTH1			LTH2			LTH3			LTH4			LSK1			LSK2			LSK3			LSK4			LCAL1			LCAL2			LCAL3			LFMH			LVMH			
		X1	Y1	Z1	X2	Y2	Z2	X3	Y3	Z3	X4	Y4	Z4	X5	Y5	Z5	X6	Y6	Z6	X7	Y7	Z7	X8	Y8	Z8	X9	Y9	Z9	X10	Y10	Z10	X11	Y11	Z11	X12	Y12	Z12	X13	Y13	Z13	X14	Y14	Z14	X15	Y15	Z15	X16	Y16	Z16	X17	Y17	Z17	X18	Y18	Z18	X19	Y19	Z19	X20	Y20	Z20	X21	Y21	Z21	X22	Y22	Z22	X23	Y23	Z23	X24	Y24	Z24	X25	Y25	Z25	X26	Y26	Z26	X27	Y27	Z27	X28	Y28	Z28	X29	Y29	Z29	X30	Y30	Z30	X31	Y31	Z31	X32	Y32	Z32	X33	Y33	Z33	X34	Y34	Z34	X35	Y35	Z35	X36	Y36	Z36	X37	Y37	Z37	X38	Y38	Z38	

190	0.7875	478.4926757812501	1204.32373046875	-2260.096435546875	366.4266662597657	1201.971313476563	-2263.1162109375	544.8956909179689	1134.307739257813	-2446.8466796875	311.3179626464844	1117.713745117188	-2452.189697265625	613.7888183593751	846.5910644531252	-2431.941650390625	594.1320800781251	851.5294189453127	-2489.582275390625	600.2155151367189	774.6316528320315	-2474.281982421875	570.4241943359376	777.5920410156252	-2524.86181640625	546.3514404296876	328.4447631835938	-2500.682373046875	552.8511962890626	326.2356567382813	-2562.026611328125	541.3259277343751	276.7286071777344	-2528.117431640625	537.1765747070314	276.9239196777344	-2588.145751953125	471.168182373047	118.7112503051758	-2509.49365234375	432.1422729492189	93.4922332763672	-2529.837158203125	492.8317260742189	75.37100982666017	-2522.03466796875	433.8591308593751	125.0202178955078	-2593.712646484375	526.1040039062501	91.13206481933595	-2575.174560546875	457.7498474121095	151.022689819336	-2644.57470703125	461.1113891601564	137.4845428466797	-2677.55322265625	514.3815917968751	149.8320922851563	-2678.87255859375	535.0635375976564	72.22557830810548	-2623.564453125	456.7362365722657	119.530143737793	-2736.538818359375	513.2929687500001	123.0094146728516	-2742.446533203125	558.8348388671876	73.94661712646486	-2699.986328125	510.5510559082032	133.6684265136719	-2796.87939453125	246.2364044189454	855.8829345703127	-2266.949462890625	256.7364196777344	823.5233154296877	-2317.43408203125	256.0979919433594	770.9544067382815	-2254.572998046875	279.9047851562501	741.3123779296876	-2301.988525390625	295.4688720703126	494.2823486328126	-1902.853393554688	286.7617492675782	444.2428588867189	-1920.682739257813	297.0427551269532	446.8986206054689	-1871.654663085938	303.8567810058594	395.378631591797	-1894.334106445313	363.4859313964844	409.8776855468751	-1743.932861328125	343.6160583496094	393.9692687988282	-1703.236694335938	400.508514404297	393.8384704589845	-1718.30078125	395.553436279297	191.0434722900391	-1803.966796875	304.1358642578126	207.7343444824219	-1740.165649414063	
191	0.7916666666666666	479.041473388672	1202.103149414063	-2273.248291015625	366.7890319824219	1200.24169921875	-2276.339599609375	545.2391967773439	1132.025756835938	-2460.13916015625	311.3460693359376	1116.881958007813	-2465.66650390625	614.8065795898439	843.626647949219	-2442.94189453125	594.6443481445314	848.002868652344	-2500.421630859375	600.8310546875001	771.2303466796877	-2484.420654296875	570.7388305664064	773.7293701171877	-2534.858642578125	546.4014892578126	325.4712219238282	-2516.072998046875	552.9506835937501	324.2232055664063	-2577.428955078125	541.3314208984376	274.1263122558594	-2544.2724609375	537.2380371093751	275.4049682617188	-2604.32958984375	472.3513793945314	115.2792587280274	-2527.72216796875	433.0108337402345	90.57769012451173	-2548.231689453125	493.7820129394532	72.55571746826173	-2541.455810546875	433.9732360839845	123.2480163574219	-2611.63427734375	526.3475341796876	89.16430664062501	-2594.771728515625	457.1317138671876	150.6503143310547	-2662.818359375	460.0387573242189	137.1193084716797	-2695.458984375	513.3029785156251	149.4183654785157	-2697.284423828125	534.6941528320314	71.03609466552736	-2643.5380859375	454.7984008789064	120.0339431762696	-2754.654541015625	511.4711303710939	123.8331069946289	-2761.247802734375	557.5407714843751	74.00681304931642	-2720.22900390625	508.0035400390626	135.6796875	-2815.357421875	246.3113861083985	853.239196777344	-2282.016845703125	256.9295654296876	821.3223266601565	-2332.76123046875	255.9539031982422	768.3084716796877	-2270.277099609375	279.8762207031251	738.8078002929689	-2317.666748046875	296.0121154785157	498.9391479492189	-1915.21533203125	286.6129760742188	448.6092529296876	-1931.606201171875	297.3932189941407	452.4378967285157	-1882.7333984375	303.4601135253907	400.2373352050782	-1904.04833984375	364.0096130371094	418.0767517089845	-1754.09228515625	344.3803710937501	402.8838195800782	-1712.935913085938	401.2378540039064	402.3802490234376	-1728.341186523438	394.7253417968751	198.1315917968751	-1810.483276367188	303.8690795898438	216.4297637939454	-1746.332153320313	
192	0.7958333333333333	479.6167602539064	1199.594604492188	-2286.2744140625	367.2586669921876	1198.27392578125	-2289.5146484375	545.5465087890626	1129.390380859375	-2473.540283203125	311.0480651855469	1116.005737304688	-2479.85595703125	615.7506713867189	840.7505493164065	-2454.0263671875	595.3955688476564	844.692077636719	-2511.480224609375	601.3302612304689	767.9943847656251	-2494.836181640625	571.3281860351564	770.2019653320315	-2545.308837890625	546.2704467773439	322.4915161132813	-2530.86083984375	552.8466796875001	322.0481567382813	-2592.23779296875	541.3565673828126	271.6052246093751	-2559.800048828125	537.3079223632814	273.5496520996094	-2619.75732421875	473.4715270996095	112.2941131591797	-2545.220703125	433.8944702148439	87.84426879882814	-2565.460205078125	494.8039855957032	69.74568939208986	-2559.8740234375	434.0461425781251	121.2774047851563	-2628.482421875	526.6667480468751	87.15039062500001	-2613.416259765625	456.4607238769532	148.3099670410157	-2678.483154296875	458.9223937988282	136.5372314453125	-2712.38671875	512.1031494140626	148.8406829833985	-2714.683837890625	534.3203125000001	69.61021423339845	-2662.521240234375	452.7492675781251	120.3846588134766	-2771.55859375	509.3231201171876	124.3227996826172	-2779.0595703125	556.0222167968751	73.81252288818361	-2739.385986328125	505.1350708007814	137.2610778808594	-2832.798583984375	246.2825164794922	850.5339355468752	-2297.103271484375	256.9579772949219	818.904724121094	-2348.01318359375	255.7075195312501	765.3312377929689	-2285.8388671875	279.5752868652344	736.2308959960939	-2333.517578125	296.5596313476563	503.4110717773439	-1928.002563476563	286.4620971679688	452.7808837890626	-1942.948486328125	297.7002258300782	457.862030029297	-1894.309204101563	303.1271972656251	404.9192199707032	-1914.240356445313	364.6112365722657	426.2796020507814	-1764.7412109375	345.1175231933594	411.9343261718751	-1723.203979492188	401.9284057617189	410.7932434082032	-1738.961547851563	393.926483154297	205.2093811035157	-1817.238525390625	303.4723510742188	225.1731872558594	-1752.873168945313	
193	0.8	480.081268310547	1196.7373046875	-2299.202880859375	367.7734069824219	1196.064331054688	-2302.603515625	545.6646728515626	1126.557006835938	-2486.677490234375	310.9960021972657	1114.650634765625	-2493.4267578125	616.5441894531251	837.894470214844	-2465.24462890625	596.1951904296876	841.606628417969	-2522.727294921875	601.7007446289064	765.0087890625001	-2505.58203125	572.0546264648439	767.0219116210939	-2556.259521484375	546.0557861328126	319.6203002929688	-2545.137451171875	552.8713378906251	319.8704833984376	-2606.503173828125	541.2963256835939	268.9250488281251	-2574.605712890625	537.3415527343751	271.7034301757813	-2634.61328125	474.503387451172	109.2810287475586	-2561.704345703125	434.8294372558595	84.89694213867189	-2581.65673828125	495.9049377441407	66.91177368164064	-2577.318603515625	434.1231689453126	119.2160034179688	-2644.36474609375	526.8756103515626	85.02261352539064	-2631.043212890625	455.7020568847657	147.0186309814453	-2694.294189453125	457.6982727050782	135.6647033691407	-2728.27587890625	510.9126892089845	148.0386962890625	-2731.30712890625	533.9209594726564	68.14680480957033	-2680.501953125	450.6554260253907	120.1495971679688	-2787.591064453125	507.1768798828126	124.3329086303711	-2795.86474609375	554.4340820312501	73.47530364990236	-2757.560546875	502.0941467285157	138.3148651123047	-2849.1357421875	246.1353454589844	847.6433715820315	-2312.11669921875	256.7488708496094	816.4331054687502	-2363.232666015625	255.3042144775391	762.3201293945314	-2301.48291015625	278.9613342285157	733.6428833007814	-2349.521240234375	296.9967651367188	507.5993652343751	-1941.306274414063	286.3812255859376	456.7451171875001	-1954.778930664063	298.0005493164063	463.0051574707032	-1906.358276367188	302.8913269042969	409.2918090820314	-1924.911987304688	365.1714782714844	434.4208374023439	-1775.927001953125	345.7695312500001	421.0556945800782	-1734.074462890625	402.6892700195314	419.1824645996095	-1750.042724609375	393.0632629394532	212.2340240478516	-1824.264892578125	302.9568176269532	233.8814392089844	-1760.027465820313	
